<mxfile host="app.diagrams.net" modified="2021-08-29T02:28:28.137Z" agent="5.0 (Macintosh; Intel Mac OS X 10_15_7) AppleWebKit/605.1.15 (KHTML, like Gecko) Version/14.1.2 Safari/605.1.15" etag="aOIp2G7UetcKzh9RQ9rS" version="14.9.9" type="github">
  <diagram id="N9orWMZUs_jUxYQp0Vpb" name="Page-1">
    <mxGraphModel dx="946" dy="645" grid="1" gridSize="10" guides="1" tooltips="1" connect="1" arrows="1" fold="1" page="1" pageScale="1" pageWidth="850" pageHeight="1100" math="0" shadow="0">
      <root>
        <mxCell id="0" />
        <mxCell id="1" parent="0" />
        <mxCell id="loEheQ4Jqd9pmgpTy4yQ-1" value="Lemonade System" style="ellipse;whiteSpace=wrap;html=1;aspect=fixed;" vertex="1" parent="1">
          <mxGeometry x="380" y="290" width="110" height="110" as="geometry" />
        </mxCell>
        <mxCell id="loEheQ4Jqd9pmgpTy4yQ-2" value="CUSTOMER" style="whiteSpace=wrap;html=1;aspect=fixed;" vertex="1" parent="1">
          <mxGeometry x="100" y="280" width="110" height="110" as="geometry" />
        </mxCell>
        <mxCell id="loEheQ4Jqd9pmgpTy4yQ-3" value="EMPLOYEE" style="whiteSpace=wrap;html=1;aspect=fixed;" vertex="1" parent="1">
          <mxGeometry x="680" y="275" width="110" height="110" as="geometry" />
        </mxCell>
        <mxCell id="loEheQ4Jqd9pmgpTy4yQ-4" value="VENDOR" style="whiteSpace=wrap;html=1;aspect=fixed;" vertex="1" parent="1">
          <mxGeometry x="380" y="530" width="110" height="110" as="geometry" />
        </mxCell>
        <mxCell id="loEheQ4Jqd9pmgpTy4yQ-5" value="" style="endArrow=classic;html=1;" edge="1" parent="1">
          <mxGeometry width="50" height="50" relative="1" as="geometry">
            <mxPoint x="210" y="310" as="sourcePoint" />
            <mxPoint x="370" y="310" as="targetPoint" />
            <Array as="points">
              <mxPoint x="300" y="310" />
            </Array>
          </mxGeometry>
        </mxCell>
        <mxCell id="loEheQ4Jqd9pmgpTy4yQ-6" value="" style="endArrow=classic;html=1;" edge="1" parent="1">
          <mxGeometry width="50" height="50" relative="1" as="geometry">
            <mxPoint x="370" y="350" as="sourcePoint" />
            <mxPoint x="210" y="350" as="targetPoint" />
            <Array as="points">
              <mxPoint x="290" y="350" />
            </Array>
          </mxGeometry>
        </mxCell>
        <mxCell id="loEheQ4Jqd9pmgpTy4yQ-7" value="" style="endArrow=classic;html=1;" edge="1" parent="1">
          <mxGeometry width="50" height="50" relative="1" as="geometry">
            <mxPoint x="210" y="380" as="sourcePoint" />
            <mxPoint x="370" y="380" as="targetPoint" />
            <Array as="points">
              <mxPoint x="300" y="380" />
            </Array>
          </mxGeometry>
        </mxCell>
        <mxCell id="loEheQ4Jqd9pmgpTy4yQ-8" value="Order" style="text;html=1;align=center;verticalAlign=middle;resizable=0;points=[];autosize=1;strokeColor=none;" vertex="1" parent="1">
          <mxGeometry x="270" y="290" width="50" height="20" as="geometry" />
        </mxCell>
        <mxCell id="loEheQ4Jqd9pmgpTy4yQ-9" value="Product Served" style="text;html=1;align=center;verticalAlign=middle;resizable=0;points=[];autosize=1;strokeColor=none;" vertex="1" parent="1">
          <mxGeometry x="230" y="330" width="100" height="20" as="geometry" />
        </mxCell>
        <mxCell id="loEheQ4Jqd9pmgpTy4yQ-10" value="Payment&lt;br&gt;" style="text;html=1;align=center;verticalAlign=middle;resizable=0;points=[];autosize=1;strokeColor=none;" vertex="1" parent="1">
          <mxGeometry x="260" y="380" width="60" height="20" as="geometry" />
        </mxCell>
        <mxCell id="loEheQ4Jqd9pmgpTy4yQ-11" value="" style="endArrow=classic;html=1;exitX=0.145;exitY=0.918;exitDx=0;exitDy=0;exitPerimeter=0;" edge="1" parent="1" source="loEheQ4Jqd9pmgpTy4yQ-1">
          <mxGeometry width="50" height="50" relative="1" as="geometry">
            <mxPoint x="400" y="420" as="sourcePoint" />
            <mxPoint x="400" y="520" as="targetPoint" />
          </mxGeometry>
        </mxCell>
        <mxCell id="loEheQ4Jqd9pmgpTy4yQ-12" value="" style="endArrow=classic;html=1;" edge="1" parent="1">
          <mxGeometry width="50" height="50" relative="1" as="geometry">
            <mxPoint x="480" y="400" as="sourcePoint" />
            <mxPoint x="480" y="510" as="targetPoint" />
          </mxGeometry>
        </mxCell>
        <mxCell id="loEheQ4Jqd9pmgpTy4yQ-13" value="" style="endArrow=classic;html=1;exitX=0.582;exitY=-0.045;exitDx=0;exitDy=0;exitPerimeter=0;" edge="1" parent="1" source="loEheQ4Jqd9pmgpTy4yQ-4">
          <mxGeometry width="50" height="50" relative="1" as="geometry">
            <mxPoint x="445" y="510" as="sourcePoint" />
            <mxPoint x="440" y="410" as="targetPoint" />
            <Array as="points" />
          </mxGeometry>
        </mxCell>
        <mxCell id="loEheQ4Jqd9pmgpTy4yQ-14" value="Received&lt;br&gt;Good&lt;br&gt;Payment&lt;br&gt;" style="text;html=1;align=center;verticalAlign=middle;resizable=0;points=[];autosize=1;strokeColor=none;" vertex="1" parent="1">
          <mxGeometry x="320" y="410" width="70" height="50" as="geometry" />
        </mxCell>
        <mxCell id="loEheQ4Jqd9pmgpTy4yQ-15" value="Purchase Order&lt;br&gt;" style="text;html=1;align=center;verticalAlign=middle;resizable=0;points=[];autosize=1;strokeColor=none;" vertex="1" parent="1">
          <mxGeometry x="480" y="450" width="100" height="20" as="geometry" />
        </mxCell>
        <mxCell id="loEheQ4Jqd9pmgpTy4yQ-16" value="" style="endArrow=classic;html=1;" edge="1" parent="1">
          <mxGeometry width="50" height="50" relative="1" as="geometry">
            <mxPoint x="500" y="290" as="sourcePoint" />
            <mxPoint x="660" y="290" as="targetPoint" />
            <Array as="points">
              <mxPoint x="590" y="290" />
            </Array>
          </mxGeometry>
        </mxCell>
        <mxCell id="loEheQ4Jqd9pmgpTy4yQ-17" value="" style="endArrow=classic;html=1;" edge="1" parent="1">
          <mxGeometry width="50" height="50" relative="1" as="geometry">
            <mxPoint x="660" y="320" as="sourcePoint" />
            <mxPoint x="500" y="320" as="targetPoint" />
            <Array as="points">
              <mxPoint x="580" y="320" />
            </Array>
          </mxGeometry>
        </mxCell>
        <mxCell id="loEheQ4Jqd9pmgpTy4yQ-18" value="" style="endArrow=classic;html=1;" edge="1" parent="1">
          <mxGeometry width="50" height="50" relative="1" as="geometry">
            <mxPoint x="510" y="344.5" as="sourcePoint" />
            <mxPoint x="670" y="344.5" as="targetPoint" />
            <Array as="points">
              <mxPoint x="600" y="344.5" />
            </Array>
          </mxGeometry>
        </mxCell>
        <mxCell id="loEheQ4Jqd9pmgpTy4yQ-19" value="" style="endArrow=classic;html=1;" edge="1" parent="1">
          <mxGeometry width="50" height="50" relative="1" as="geometry">
            <mxPoint x="670" y="370" as="sourcePoint" />
            <mxPoint x="510" y="370" as="targetPoint" />
            <Array as="points">
              <mxPoint x="590" y="370" />
            </Array>
          </mxGeometry>
        </mxCell>
        <mxCell id="loEheQ4Jqd9pmgpTy4yQ-20" value="Sales Forecast" style="text;html=1;align=center;verticalAlign=middle;resizable=0;points=[];autosize=1;strokeColor=none;" vertex="1" parent="1">
          <mxGeometry x="510" y="270" width="100" height="20" as="geometry" />
        </mxCell>
        <mxCell id="loEheQ4Jqd9pmgpTy4yQ-21" value="Production Schedule&lt;br&gt;" style="text;html=1;align=center;verticalAlign=middle;resizable=0;points=[];autosize=1;strokeColor=none;" vertex="1" parent="1">
          <mxGeometry x="510" y="300" width="130" height="20" as="geometry" />
        </mxCell>
        <mxCell id="loEheQ4Jqd9pmgpTy4yQ-24" value="Pay" style="text;html=1;align=center;verticalAlign=middle;resizable=0;points=[];autosize=1;strokeColor=none;" vertex="1" parent="1">
          <mxGeometry x="555" y="325" width="40" height="20" as="geometry" />
        </mxCell>
        <mxCell id="loEheQ4Jqd9pmgpTy4yQ-25" value="Time Worked&lt;br&gt;" style="text;html=1;align=center;verticalAlign=middle;resizable=0;points=[];autosize=1;strokeColor=none;" vertex="1" parent="1">
          <mxGeometry x="535" y="370" width="90" height="20" as="geometry" />
        </mxCell>
      </root>
    </mxGraphModel>
  </diagram>
</mxfile>
